<svg xmlns="http://www.w3.org/2000/svg" width="1024" height="1024" viewBox="0 0 1024 1024" role="img" aria-label="RunnerBar">
  <title>RunnerBar</title>
  <defs>
    <clipPath id="innerClip"><path d="M 884.00 512.00 L 883.99 567.83 L 883.98 585.67 L 883.95 598.64 L 883.91 609.20 L 883.86 618.27 L 883.80 626.30 L 883.72 633.57 L 883.64 640.23 L 883.54 646.40 L 883.43 652.17 L 883.31 657.60 L 883.18 662.74 L 883.04 667.63 L 882.89 672.29 L 882.72 676.75 L 882.55 681.03 L 882.36 685.15 L 882.16 689.12 L 881.95 692.96 L 881.73 696.68 L 881.50 700.28 L 881.25 703.77 L 880.99 707.17 L 880.73 710.47 L 880.45 713.69 L 880.16 716.82 L 879.85 719.88 L 879.54 722.87 L 879.21 725.79 L 878.88 728.64 L 878.53 731.43 L 878.17 734.17 L 877.79 736.84 L 877.41 739.47 L 877.02 742.04 L 876.61 744.56 L 876.19 747.04 L 875.76 749.47 L 875.31 751.85 L 874.86 754.19 L 874.39 756.50 L 873.91 758.76 L 873.42 760.98 L 872.92 763.17 L 872.40 765.33 L 871.88 767.44 L 871.34 769.53 L 870.79 771.58 L 870.22 773.60 L 869.65 775.59 L 869.06 777.54 L 868.46 779.47 L 867.84 781.37 L 867.22 783.24 L 866.58 785.09 L 865.93 786.91 L 865.27 788.70 L 864.59 790.47 L 863.90 792.21 L 863.20 793.92 L 862.49 795.62 L 861.76 797.28 L 861.02 798.93 L 860.27 800.55 L 859.50 802.15 L 858.72 803.73 L 857.93 805.29 L 857.12 806.83 L 856.30 808.34 L 855.47 809.84 L 854.62 811.31 L 853.76 812.77 L 852.89 814.20 L 852.00 815.62 L 851.10 817.02 L 850.19 818.39 L 849.26 819.75 L 848.31 821.09 L 847.36 822.42 L 846.38 823.72 L 845.40 825.01 L 844.40 826.28 L 843.38 827.54 L 842.35 828.77 L 841.30 829.99 L 840.24 831.20 L 839.17 832.38 L 838.07 833.55 L 836.97 834.71 L 835.84 835.84 L 834.71 836.97 L 833.55 838.07 L 832.38 839.17 L 831.20 840.24 L 829.99 841.30 L 828.77 842.35 L 827.54 843.38 L 826.28 844.40 L 825.01 845.40 L 823.72 846.38 L 822.42 847.36 L 821.09 848.31 L 819.75 849.26 L 818.39 850.19 L 817.02 851.10 L 815.62 852.00 L 814.20 852.89 L 812.77 853.76 L 811.31 854.62 L 809.84 855.47 L 808.34 856.30 L 806.83 857.12 L 805.29 857.93 L 803.73 858.72 L 802.15 859.50 L 800.55 860.27 L 798.93 861.02 L 797.28 861.76 L 795.62 862.49 L 793.92 863.20 L 792.21 863.90 L 790.47 864.59 L 788.70 865.27 L 786.91 865.93 L 785.09 866.58 L 783.24 867.22 L 781.37 867.84 L 779.47 868.46 L 777.54 869.06 L 775.59 869.65 L 773.60 870.22 L 771.58 870.79 L 769.53 871.34 L 767.44 871.88 L 765.33 872.40 L 763.17 872.92 L 760.98 873.42 L 758.76 873.91 L 756.50 874.39 L 754.19 874.86 L 751.85 875.31 L 749.47 875.76 L 747.04 876.19 L 744.56 876.61 L 742.04 877.02 L 739.47 877.41 L 736.84 877.79 L 734.17 878.17 L 731.43 878.53 L 728.64 878.88 L 725.79 879.21 L 722.87 879.54 L 719.88 879.85 L 716.82 880.16 L 713.69 880.45 L 710.47 880.73 L 707.17 880.99 L 703.77 881.25 L 700.28 881.50 L 696.68 881.73 L 692.96 881.95 L 689.12 882.16 L 685.15 882.36 L 681.03 882.55 L 676.75 882.72 L 672.29 882.89 L 667.63 883.04 L 662.74 883.18 L 657.60 883.31 L 652.17 883.43 L 646.40 883.54 L 640.23 883.64 L 633.57 883.72 L 626.30 883.80 L 618.27 883.86 L 609.20 883.91 L 598.64 883.95 L 585.67 883.98 L 567.83 883.99 L 512.00 884.00 L 456.17 883.99 L 438.33 883.98 L 425.36 883.95 L 414.80 883.91 L 405.73 883.86 L 397.70 883.80 L 390.43 883.72 L 383.77 883.64 L 377.60 883.54 L 371.83 883.43 L 366.40 883.31 L 361.26 883.18 L 356.37 883.04 L 351.71 882.89 L 347.25 882.72 L 342.97 882.55 L 338.85 882.36 L 334.88 882.16 L 331.04 881.95 L 327.32 881.73 L 323.72 881.50 L 320.23 881.25 L 316.83 880.99 L 313.53 880.73 L 310.31 880.45 L 307.18 880.16 L 304.12 879.85 L 301.13 879.54 L 298.21 879.21 L 295.36 878.88 L 292.57 878.53 L 289.83 878.17 L 287.16 877.79 L 284.53 877.41 L 281.96 877.02 L 279.44 876.61 L 276.96 876.19 L 274.53 875.76 L 272.15 875.31 L 269.81 874.86 L 267.50 874.39 L 265.24 873.91 L 263.02 873.42 L 260.83 872.92 L 258.67 872.40 L 256.56 871.88 L 254.47 871.34 L 252.42 870.79 L 250.40 870.22 L 248.41 869.65 L 246.46 869.06 L 244.53 868.46 L 242.63 867.84 L 240.76 867.22 L 238.91 866.58 L 237.09 865.93 L 235.30 865.27 L 233.53 864.59 L 231.79 863.90 L 230.08 863.20 L 228.38 862.49 L 226.72 861.76 L 225.07 861.02 L 223.45 860.27 L 221.85 859.50 L 220.27 858.72 L 218.71 857.93 L 217.17 857.12 L 215.66 856.30 L 214.16 855.47 L 212.69 854.62 L 211.23 853.76 L 209.80 852.89 L 208.38 852.00 L 206.98 851.10 L 205.61 850.19 L 204.25 849.26 L 202.91 848.31 L 201.58 847.36 L 200.28 846.38 L 198.99 845.40 L 197.72 844.40 L 196.46 843.38 L 195.23 842.35 L 194.01 841.30 L 192.80 840.24 L 191.62 839.17 L 190.45 838.07 L 189.29 836.97 L 188.16 835.84 L 187.03 834.71 L 185.93 833.55 L 184.83 832.38 L 183.76 831.20 L 182.70 829.99 L 181.65 828.77 L 180.62 827.54 L 179.60 826.28 L 178.60 825.01 L 177.62 823.72 L 176.64 822.42 L 175.69 821.09 L 174.74 819.75 L 173.81 818.39 L 172.90 817.02 L 172.00 815.62 L 171.11 814.20 L 170.24 812.77 L 169.38 811.31 L 168.53 809.84 L 167.70 808.34 L 166.88 806.83 L 166.07 805.29 L 165.28 803.73 L 164.50 802.15 L 163.73 800.55 L 162.98 798.93 L 162.24 797.28 L 161.51 795.62 L 160.80 793.92 L 160.10 792.21 L 159.41 790.47 L 158.73 788.70 L 158.07 786.91 L 157.42 785.09 L 156.78 783.24 L 156.16 781.37 L 155.54 779.47 L 154.94 777.54 L 154.35 775.59 L 153.78 773.60 L 153.21 771.58 L 152.66 769.53 L 152.12 767.44 L 151.60 765.33 L 151.08 763.17 L 150.58 760.98 L 150.09 758.76 L 149.61 756.50 L 149.14 754.19 L 148.69 751.85 L 148.24 749.47 L 147.81 747.04 L 147.39 744.56 L 146.98 742.04 L 146.59 739.47 L 146.21 736.84 L 145.83 734.17 L 145.47 731.43 L 145.12 728.64 L 144.79 725.79 L 144.46 722.87 L 144.15 719.88 L 143.84 716.82 L 143.55 713.69 L 143.27 710.47 L 143.01 707.17 L 142.75 703.77 L 142.50 700.28 L 142.27 696.68 L 142.05 692.96 L 141.84 689.12 L 141.64 685.15 L 141.45 681.03 L 141.28 676.75 L 141.11 672.29 L 140.96 667.63 L 140.82 662.74 L 140.69 657.60 L 140.57 652.17 L 140.46 646.40 L 140.36 640.23 L 140.28 633.57 L 140.20 626.30 L 140.14 618.27 L 140.09 609.20 L 140.05 598.64 L 140.02 585.67 L 140.01 567.83 L 140.00 512.00 L 140.01 456.17 L 140.02 438.33 L 140.05 425.36 L 140.09 414.80 L 140.14 405.73 L 140.20 397.70 L 140.28 390.43 L 140.36 383.77 L 140.46 377.60 L 140.57 371.83 L 140.69 366.40 L 140.82 361.26 L 140.96 356.37 L 141.11 351.71 L 141.28 347.25 L 141.45 342.97 L 141.64 338.85 L 141.84 334.88 L 142.05 331.04 L 142.27 327.32 L 142.50 323.72 L 142.75 320.23 L 143.01 316.83 L 143.27 313.53 L 143.55 310.31 L 143.84 307.18 L 144.15 304.12 L 144.46 301.13 L 144.79 298.21 L 145.12 295.36 L 145.47 292.57 L 145.83 289.83 L 146.21 287.16 L 146.59 284.53 L 146.98 281.96 L 147.39 279.44 L 147.81 276.96 L 148.24 274.53 L 148.69 272.15 L 149.14 269.81 L 149.61 267.50 L 150.09 265.24 L 150.58 263.02 L 151.08 260.83 L 151.60 258.67 L 152.12 256.56 L 152.66 254.47 L 153.21 252.42 L 153.78 250.40 L 154.35 248.41 L 154.94 246.46 L 155.54 244.53 L 156.16 242.63 L 156.78 240.76 L 157.42 238.91 L 158.07 237.09 L 158.73 235.30 L 159.41 233.53 L 160.10 231.79 L 160.80 230.08 L 161.51 228.38 L 162.24 226.72 L 162.98 225.07 L 163.73 223.45 L 164.50 221.85 L 165.28 220.27 L 166.07 218.71 L 166.88 217.17 L 167.70 215.66 L 168.53 214.16 L 169.38 212.69 L 170.24 211.23 L 171.11 209.80 L 172.00 208.38 L 172.90 206.98 L 173.81 205.61 L 174.74 204.25 L 175.69 202.91 L 176.64 201.58 L 177.62 200.28 L 178.60 198.99 L 179.60 197.72 L 180.62 196.46 L 181.65 195.23 L 182.70 194.01 L 183.76 192.80 L 184.83 191.62 L 185.93 190.45 L 187.03 189.29 L 188.16 188.16 L 189.29 187.03 L 190.45 185.93 L 191.62 184.83 L 192.80 183.76 L 194.01 182.70 L 195.23 181.65 L 196.46 180.62 L 197.72 179.60 L 198.99 178.60 L 200.28 177.62 L 201.58 176.64 L 202.91 175.69 L 204.25 174.74 L 205.61 173.81 L 206.98 172.90 L 208.38 172.00 L 209.80 171.11 L 211.23 170.24 L 212.69 169.38 L 214.16 168.53 L 215.66 167.70 L 217.17 166.88 L 218.71 166.07 L 220.27 165.28 L 221.85 164.50 L 223.45 163.73 L 225.07 162.98 L 226.72 162.24 L 228.38 161.51 L 230.08 160.80 L 231.79 160.10 L 233.53 159.41 L 235.30 158.73 L 237.09 158.07 L 238.91 157.42 L 240.76 156.78 L 242.63 156.16 L 244.53 155.54 L 246.46 154.94 L 248.41 154.35 L 250.40 153.78 L 252.42 153.21 L 254.47 152.66 L 256.56 152.12 L 258.67 151.60 L 260.83 151.08 L 263.02 150.58 L 265.24 150.09 L 267.50 149.61 L 269.81 149.14 L 272.15 148.69 L 274.53 148.24 L 276.96 147.81 L 279.44 147.39 L 281.96 146.98 L 284.53 146.59 L 287.16 146.21 L 289.83 145.83 L 292.57 145.47 L 295.36 145.12 L 298.21 144.79 L 301.13 144.46 L 304.12 144.15 L 307.18 143.84 L 310.31 143.55 L 313.53 143.27 L 316.83 143.01 L 320.23 142.75 L 323.72 142.50 L 327.32 142.27 L 331.04 142.05 L 334.88 141.84 L 338.85 141.64 L 342.97 141.45 L 347.25 141.28 L 351.71 141.11 L 356.37 140.96 L 361.26 140.82 L 366.40 140.69 L 371.83 140.57 L 377.60 140.46 L 383.77 140.36 L 390.43 140.28 L 397.70 140.20 L 405.73 140.14 L 414.80 140.09 L 425.36 140.05 L 438.33 140.02 L 456.17 140.01 L 512.00 140.00 L 567.83 140.01 L 585.67 140.02 L 598.64 140.05 L 609.20 140.09 L 618.27 140.14 L 626.30 140.20 L 633.57 140.28 L 640.23 140.36 L 646.40 140.46 L 652.17 140.57 L 657.60 140.69 L 662.74 140.82 L 667.63 140.96 L 672.29 141.11 L 676.75 141.28 L 681.03 141.45 L 685.15 141.64 L 689.12 141.84 L 692.96 142.05 L 696.68 142.27 L 700.28 142.50 L 703.77 142.75 L 707.17 143.01 L 710.47 143.27 L 713.69 143.55 L 716.82 143.84 L 719.88 144.15 L 722.87 144.46 L 725.79 144.79 L 728.64 145.12 L 731.43 145.47 L 734.17 145.83 L 736.84 146.21 L 739.47 146.59 L 742.04 146.98 L 744.56 147.39 L 747.04 147.81 L 749.47 148.24 L 751.85 148.69 L 754.19 149.14 L 756.50 149.61 L 758.76 150.09 L 760.98 150.58 L 763.17 151.08 L 765.33 151.60 L 767.44 152.12 L 769.53 152.66 L 771.58 153.21 L 773.60 153.78 L 775.59 154.35 L 777.54 154.94 L 779.47 155.54 L 781.37 156.16 L 783.24 156.78 L 785.09 157.42 L 786.91 158.07 L 788.70 158.73 L 790.47 159.41 L 792.21 160.10 L 793.92 160.80 L 795.62 161.51 L 797.28 162.24 L 798.93 162.98 L 800.55 163.73 L 802.15 164.50 L 803.73 165.28 L 805.29 166.07 L 806.83 166.88 L 808.34 167.70 L 809.84 168.53 L 811.31 169.38 L 812.77 170.24 L 814.20 171.11 L 815.62 172.00 L 817.02 172.90 L 818.39 173.81 L 819.75 174.74 L 821.09 175.69 L 822.42 176.64 L 823.72 177.62 L 825.01 178.60 L 826.28 179.60 L 827.54 180.62 L 828.77 181.65 L 829.99 182.70 L 831.20 183.76 L 832.38 184.83 L 833.55 185.93 L 834.71 187.03 L 835.84 188.16 L 836.97 189.29 L 838.07 190.45 L 839.17 191.62 L 840.24 192.80 L 841.30 194.01 L 842.35 195.23 L 843.38 196.46 L 844.40 197.72 L 845.40 198.99 L 846.38 200.28 L 847.36 201.58 L 848.31 202.91 L 849.26 204.25 L 850.19 205.61 L 851.10 206.98 L 852.00 208.38 L 852.89 209.80 L 853.76 211.23 L 854.62 212.69 L 855.47 214.16 L 856.30 215.66 L 857.12 217.17 L 857.93 218.71 L 858.72 220.27 L 859.50 221.85 L 860.27 223.45 L 861.02 225.07 L 861.76 226.72 L 862.49 228.38 L 863.20 230.08 L 863.90 231.79 L 864.59 233.53 L 865.27 235.30 L 865.93 237.09 L 866.58 238.91 L 867.22 240.76 L 867.84 242.63 L 868.46 244.53 L 869.06 246.46 L 869.65 248.41 L 870.22 250.40 L 870.79 252.42 L 871.34 254.47 L 871.88 256.56 L 872.40 258.67 L 872.92 260.83 L 873.42 263.02 L 873.91 265.24 L 874.39 267.50 L 874.86 269.81 L 875.31 272.15 L 875.76 274.53 L 876.19 276.96 L 876.61 279.44 L 877.02 281.96 L 877.41 284.53 L 877.79 287.16 L 878.17 289.83 L 878.53 292.57 L 878.88 295.36 L 879.21 298.21 L 879.54 301.13 L 879.85 304.12 L 880.16 307.18 L 880.45 310.31 L 880.73 313.53 L 880.99 316.83 L 881.25 320.23 L 881.50 323.72 L 881.73 327.32 L 881.95 331.04 L 882.16 334.88 L 882.36 338.85 L 882.55 342.97 L 882.72 347.25 L 882.89 351.71 L 883.04 356.37 L 883.18 361.26 L 883.31 366.40 L 883.43 371.83 L 883.54 377.60 L 883.64 383.77 L 883.72 390.43 L 883.80 397.70 L 883.86 405.73 L 883.91 414.80 L 883.95 425.36 L 883.98 438.33 L 883.99 456.17 L 884.00 512.00 Z"/></clipPath>
    <linearGradient id="rim" x1="0" y1="0" x2="0" y2="1">
      <stop offset="0" stop-color="#ffffff"/>
      <stop offset="1" stop-color="#f4f7fd"/>
    </linearGradient>
    <linearGradient id="panel" x1="0" y1="0" x2="0" y2="1">
      <stop offset="0" stop-color="#eef3fb"/>
      <stop offset="1" stop-color="#e6edf8"/>
    </linearGradient>
    <linearGradient id="specular" x1="0" y1="0" x2="0" y2="1">
      <stop offset="0" stop-color="#ffffff" stop-opacity="0.7"/>
      <stop offset="0.5" stop-color="#ffffff" stop-opacity="0"/>
    </linearGradient>
    <filter id="tileShadow" x="-25%" y="-25%" width="150%" height="160%">
      <feDropShadow dx="0" dy="28" stdDeviation="34" flood-color="#0d1117" flood-opacity="0.13"/>
    </filter>
  </defs>

  <!-- Outer bright-white tile (raised frame) -->
  <g filter="url(#tileShadow)">
    <path d="M 912.00 512.00 L 911.99 572.03 L 911.98 591.21 L 911.95 605.16 L 911.90 616.52 L 911.85 626.27 L 911.78 634.91 L 911.70 642.72 L 911.61 649.88 L 911.51 656.52 L 911.39 662.72 L 911.26 668.56 L 911.12 674.09 L 910.97 679.34 L 910.80 684.35 L 910.63 689.15 L 910.44 693.75 L 910.24 698.18 L 910.02 702.46 L 909.80 706.58 L 909.56 710.58 L 909.31 714.45 L 909.04 718.21 L 908.77 721.86 L 908.48 725.41 L 908.18 728.87 L 907.87 732.24 L 907.54 735.53 L 907.20 738.74 L 906.85 741.88 L 906.49 744.95 L 906.12 747.95 L 905.73 750.89 L 905.33 753.77 L 904.91 756.59 L 904.49 759.35 L 904.05 762.07 L 903.60 764.73 L 903.14 767.34 L 902.66 769.90 L 902.17 772.42 L 901.67 774.90 L 901.15 777.33 L 900.63 779.73 L 900.08 782.08 L 899.53 784.39 L 898.96 786.67 L 898.38 788.91 L 897.79 791.12 L 897.18 793.29 L 896.57 795.43 L 895.93 797.53 L 895.29 799.61 L 894.63 801.65 L 893.96 803.66 L 893.27 805.64 L 892.57 807.60 L 891.86 809.53 L 891.13 811.43 L 890.39 813.30 L 889.64 815.14 L 888.87 816.96 L 888.09 818.76 L 887.29 820.53 L 886.48 822.27 L 885.66 823.99 L 884.82 825.69 L 883.97 827.37 L 883.10 829.02 L 882.22 830.65 L 881.32 832.26 L 880.41 833.84 L 879.49 835.41 L 878.55 836.95 L 877.59 838.47 L 876.63 839.97 L 875.64 841.46 L 874.64 842.92 L 873.63 844.36 L 872.60 845.78 L 871.55 847.19 L 870.49 848.57 L 869.41 849.94 L 868.32 851.29 L 867.21 852.62 L 866.09 853.93 L 864.95 855.22 L 863.79 856.50 L 862.62 857.76 L 861.43 859.00 L 860.22 860.22 L 859.00 861.43 L 857.76 862.62 L 856.50 863.79 L 855.22 864.95 L 853.93 866.09 L 852.62 867.21 L 851.29 868.32 L 849.94 869.41 L 848.57 870.49 L 847.19 871.55 L 845.78 872.60 L 844.36 873.63 L 842.92 874.64 L 841.46 875.64 L 839.97 876.63 L 838.47 877.59 L 836.95 878.55 L 835.41 879.49 L 833.84 880.41 L 832.26 881.32 L 830.65 882.22 L 829.02 883.10 L 827.37 883.97 L 825.69 884.82 L 823.99 885.66 L 822.27 886.48 L 820.53 887.29 L 818.76 888.09 L 816.96 888.87 L 815.14 889.64 L 813.30 890.39 L 811.43 891.13 L 809.53 891.86 L 807.60 892.57 L 805.64 893.27 L 803.66 893.96 L 801.65 894.63 L 799.61 895.29 L 797.53 895.93 L 795.43 896.57 L 793.29 897.18 L 791.12 897.79 L 788.91 898.38 L 786.67 898.96 L 784.39 899.53 L 782.08 900.08 L 779.73 900.63 L 777.33 901.15 L 774.90 901.67 L 772.42 902.17 L 769.90 902.66 L 767.34 903.14 L 764.73 903.60 L 762.07 904.05 L 759.35 904.49 L 756.59 904.91 L 753.77 905.33 L 750.89 905.73 L 747.95 906.12 L 744.95 906.49 L 741.88 906.85 L 738.74 907.20 L 735.53 907.54 L 732.24 907.87 L 728.87 908.18 L 725.41 908.48 L 721.86 908.77 L 718.21 909.04 L 714.45 909.31 L 710.58 909.56 L 706.58 909.80 L 702.46 910.02 L 698.18 910.24 L 693.75 910.44 L 689.15 910.63 L 684.35 910.80 L 679.34 910.97 L 674.09 911.12 L 668.56 911.26 L 662.72 911.39 L 656.52 911.51 L 649.88 911.61 L 642.72 911.70 L 634.91 911.78 L 626.27 911.85 L 616.52 911.90 L 605.16 911.95 L 591.21 911.98 L 572.03 911.99 L 512.00 912.00 L 451.97 911.99 L 432.79 911.98 L 418.84 911.95 L 407.48 911.90 L 397.73 911.85 L 389.09 911.78 L 381.28 911.70 L 374.12 911.61 L 367.48 911.51 L 361.28 911.39 L 355.44 911.26 L 349.91 911.12 L 344.66 910.97 L 339.65 910.80 L 334.85 910.63 L 330.25 910.44 L 325.82 910.24 L 321.54 910.02 L 317.42 909.80 L 313.42 909.56 L 309.55 909.31 L 305.79 909.04 L 302.14 908.77 L 298.59 908.48 L 295.13 908.18 L 291.76 907.87 L 288.47 907.54 L 285.26 907.20 L 282.12 906.85 L 279.05 906.49 L 276.05 906.12 L 273.11 905.73 L 270.23 905.33 L 267.41 904.91 L 264.65 904.49 L 261.93 904.05 L 259.27 903.60 L 256.66 903.14 L 254.10 902.66 L 251.58 902.17 L 249.10 901.67 L 246.67 901.15 L 244.27 900.63 L 241.92 900.08 L 239.61 899.53 L 237.33 898.96 L 235.09 898.38 L 232.88 897.79 L 230.71 897.18 L 228.57 896.57 L 226.47 895.93 L 224.39 895.29 L 222.35 894.63 L 220.34 893.96 L 218.36 893.27 L 216.40 892.57 L 214.47 891.86 L 212.57 891.13 L 210.70 890.39 L 208.86 889.64 L 207.04 888.87 L 205.24 888.09 L 203.47 887.29 L 201.73 886.48 L 200.01 885.66 L 198.31 884.82 L 196.63 883.97 L 194.98 883.10 L 193.35 882.22 L 191.74 881.32 L 190.16 880.41 L 188.59 879.49 L 187.05 878.55 L 185.53 877.59 L 184.03 876.63 L 182.54 875.64 L 181.08 874.64 L 179.64 873.63 L 178.22 872.60 L 176.81 871.55 L 175.43 870.49 L 174.06 869.41 L 172.71 868.32 L 171.38 867.21 L 170.07 866.09 L 168.78 864.95 L 167.50 863.79 L 166.24 862.62 L 165.00 861.43 L 163.78 860.22 L 162.57 859.00 L 161.38 857.76 L 160.21 856.50 L 159.05 855.22 L 157.91 853.93 L 156.79 852.62 L 155.68 851.29 L 154.59 849.94 L 153.51 848.57 L 152.45 847.19 L 151.40 845.78 L 150.37 844.36 L 149.36 842.92 L 148.36 841.46 L 147.37 839.97 L 146.41 838.47 L 145.45 836.95 L 144.51 835.41 L 143.59 833.84 L 142.68 832.26 L 141.78 830.65 L 140.90 829.02 L 140.03 827.37 L 139.18 825.69 L 138.34 823.99 L 137.52 822.27 L 136.71 820.53 L 135.91 818.76 L 135.13 816.96 L 134.36 815.14 L 133.61 813.30 L 132.87 811.43 L 132.14 809.53 L 131.43 807.60 L 130.73 805.64 L 130.04 803.66 L 129.37 801.65 L 128.71 799.61 L 128.07 797.53 L 127.43 795.43 L 126.82 793.29 L 126.21 791.12 L 125.62 788.91 L 125.04 786.67 L 124.47 784.39 L 123.92 782.08 L 123.37 779.73 L 122.85 777.33 L 122.33 774.90 L 121.83 772.42 L 121.34 769.90 L 120.86 767.34 L 120.40 764.73 L 119.95 762.07 L 119.51 759.35 L 119.09 756.59 L 118.67 753.77 L 118.27 750.89 L 117.88 747.95 L 117.51 744.95 L 117.15 741.88 L 116.80 738.74 L 116.46 735.53 L 116.13 732.24 L 115.82 728.87 L 115.52 725.41 L 115.23 721.86 L 114.96 718.21 L 114.69 714.45 L 114.44 710.58 L 114.20 706.58 L 113.98 702.46 L 113.76 698.18 L 113.56 693.75 L 113.37 689.15 L 113.20 684.35 L 113.03 679.34 L 112.88 674.09 L 112.74 668.56 L 112.61 662.72 L 112.49 656.52 L 112.39 649.88 L 112.30 642.72 L 112.22 634.91 L 112.15 626.27 L 112.10 616.52 L 112.05 605.16 L 112.02 591.21 L 112.01 572.03 L 112.00 512.00 L 112.01 451.97 L 112.02 432.79 L 112.05 418.84 L 112.10 407.48 L 112.15 397.73 L 112.22 389.09 L 112.30 381.28 L 112.39 374.12 L 112.49 367.48 L 112.61 361.28 L 112.74 355.44 L 112.88 349.91 L 113.03 344.66 L 113.20 339.65 L 113.37 334.85 L 113.56 330.25 L 113.76 325.82 L 113.98 321.54 L 114.20 317.42 L 114.44 313.42 L 114.69 309.55 L 114.96 305.79 L 115.23 302.14 L 115.52 298.59 L 115.82 295.13 L 116.13 291.76 L 116.46 288.47 L 116.80 285.26 L 117.15 282.12 L 117.51 279.05 L 117.88 276.05 L 118.27 273.11 L 118.67 270.23 L 119.09 267.41 L 119.51 264.65 L 119.95 261.93 L 120.40 259.27 L 120.86 256.66 L 121.34 254.10 L 121.83 251.58 L 122.33 249.10 L 122.85 246.67 L 123.37 244.27 L 123.92 241.92 L 124.47 239.61 L 125.04 237.33 L 125.62 235.09 L 126.21 232.88 L 126.82 230.71 L 127.43 228.57 L 128.07 226.47 L 128.71 224.39 L 129.37 222.35 L 130.04 220.34 L 130.73 218.36 L 131.43 216.40 L 132.14 214.47 L 132.87 212.57 L 133.61 210.70 L 134.36 208.86 L 135.13 207.04 L 135.91 205.24 L 136.71 203.47 L 137.52 201.73 L 138.34 200.01 L 139.18 198.31 L 140.03 196.63 L 140.90 194.98 L 141.78 193.35 L 142.68 191.74 L 143.59 190.16 L 144.51 188.59 L 145.45 187.05 L 146.41 185.53 L 147.37 184.03 L 148.36 182.54 L 149.36 181.08 L 150.37 179.64 L 151.40 178.22 L 152.45 176.81 L 153.51 175.43 L 154.59 174.06 L 155.68 172.71 L 156.79 171.38 L 157.91 170.07 L 159.05 168.78 L 160.21 167.50 L 161.38 166.24 L 162.57 165.00 L 163.78 163.78 L 165.00 162.57 L 166.24 161.38 L 167.50 160.21 L 168.78 159.05 L 170.07 157.91 L 171.38 156.79 L 172.71 155.68 L 174.06 154.59 L 175.43 153.51 L 176.81 152.45 L 178.22 151.40 L 179.64 150.37 L 181.08 149.36 L 182.54 148.36 L 184.03 147.37 L 185.53 146.41 L 187.05 145.45 L 188.59 144.51 L 190.16 143.59 L 191.74 142.68 L 193.35 141.78 L 194.98 140.90 L 196.63 140.03 L 198.31 139.18 L 200.01 138.34 L 201.73 137.52 L 203.47 136.71 L 205.24 135.91 L 207.04 135.13 L 208.86 134.36 L 210.70 133.61 L 212.57 132.87 L 214.47 132.14 L 216.40 131.43 L 218.36 130.73 L 220.34 130.04 L 222.35 129.37 L 224.39 128.71 L 226.47 128.07 L 228.57 127.43 L 230.71 126.82 L 232.88 126.21 L 235.09 125.62 L 237.33 125.04 L 239.61 124.47 L 241.92 123.92 L 244.27 123.37 L 246.67 122.85 L 249.10 122.33 L 251.58 121.83 L 254.10 121.34 L 256.66 120.86 L 259.27 120.40 L 261.93 119.95 L 264.65 119.51 L 267.41 119.09 L 270.23 118.67 L 273.11 118.27 L 276.05 117.88 L 279.05 117.51 L 282.12 117.15 L 285.26 116.80 L 288.47 116.46 L 291.76 116.13 L 295.13 115.82 L 298.59 115.52 L 302.14 115.23 L 305.79 114.96 L 309.55 114.69 L 313.42 114.44 L 317.42 114.20 L 321.54 113.98 L 325.82 113.76 L 330.25 113.56 L 334.85 113.37 L 339.65 113.20 L 344.66 113.03 L 349.91 112.88 L 355.44 112.74 L 361.28 112.61 L 367.48 112.49 L 374.12 112.39 L 381.28 112.30 L 389.09 112.22 L 397.73 112.15 L 407.48 112.10 L 418.84 112.05 L 432.79 112.02 L 451.97 112.01 L 512.00 112.00 L 572.03 112.01 L 591.21 112.02 L 605.16 112.05 L 616.52 112.10 L 626.27 112.15 L 634.91 112.22 L 642.72 112.30 L 649.88 112.39 L 656.52 112.49 L 662.72 112.61 L 668.56 112.74 L 674.09 112.88 L 679.34 113.03 L 684.35 113.20 L 689.15 113.37 L 693.75 113.56 L 698.18 113.76 L 702.46 113.98 L 706.58 114.20 L 710.58 114.44 L 714.45 114.69 L 718.21 114.96 L 721.86 115.23 L 725.41 115.52 L 728.87 115.82 L 732.24 116.13 L 735.53 116.46 L 738.74 116.80 L 741.88 117.15 L 744.95 117.51 L 747.95 117.88 L 750.89 118.27 L 753.77 118.67 L 756.59 119.09 L 759.35 119.51 L 762.07 119.95 L 764.73 120.40 L 767.34 120.86 L 769.90 121.34 L 772.42 121.83 L 774.90 122.33 L 777.33 122.85 L 779.73 123.37 L 782.08 123.92 L 784.39 124.47 L 786.67 125.04 L 788.91 125.62 L 791.12 126.21 L 793.29 126.82 L 795.43 127.43 L 797.53 128.07 L 799.61 128.71 L 801.65 129.37 L 803.66 130.04 L 805.64 130.73 L 807.60 131.43 L 809.53 132.14 L 811.43 132.87 L 813.30 133.61 L 815.14 134.36 L 816.96 135.13 L 818.76 135.91 L 820.53 136.71 L 822.27 137.52 L 823.99 138.34 L 825.69 139.18 L 827.37 140.03 L 829.02 140.90 L 830.65 141.78 L 832.26 142.68 L 833.84 143.59 L 835.41 144.51 L 836.95 145.45 L 838.47 146.41 L 839.97 147.37 L 841.46 148.36 L 842.92 149.36 L 844.36 150.37 L 845.78 151.40 L 847.19 152.45 L 848.57 153.51 L 849.94 154.59 L 851.29 155.68 L 852.62 156.79 L 853.93 157.91 L 855.22 159.05 L 856.50 160.21 L 857.76 161.38 L 859.00 162.57 L 860.22 163.78 L 861.43 165.00 L 862.62 166.24 L 863.79 167.50 L 864.95 168.78 L 866.09 170.07 L 867.21 171.38 L 868.32 172.71 L 869.41 174.06 L 870.49 175.43 L 871.55 176.81 L 872.60 178.22 L 873.63 179.64 L 874.64 181.08 L 875.64 182.54 L 876.63 184.03 L 877.59 185.53 L 878.55 187.05 L 879.49 188.59 L 880.41 190.16 L 881.32 191.74 L 882.22 193.35 L 883.10 194.98 L 883.97 196.63 L 884.82 198.31 L 885.66 200.01 L 886.48 201.73 L 887.29 203.47 L 888.09 205.24 L 888.87 207.04 L 889.64 208.86 L 890.39 210.70 L 891.13 212.57 L 891.86 214.47 L 892.57 216.40 L 893.27 218.36 L 893.96 220.34 L 894.63 222.35 L 895.29 224.39 L 895.93 226.47 L 896.57 228.57 L 897.18 230.71 L 897.79 232.88 L 898.38 235.09 L 898.96 237.33 L 899.53 239.61 L 900.08 241.92 L 900.63 244.27 L 901.15 246.67 L 901.67 249.10 L 902.17 251.58 L 902.66 254.10 L 903.14 256.66 L 903.60 259.27 L 904.05 261.93 L 904.49 264.65 L 904.91 267.41 L 905.33 270.23 L 905.73 273.11 L 906.12 276.05 L 906.49 279.05 L 906.85 282.12 L 907.20 285.26 L 907.54 288.47 L 907.87 291.76 L 908.18 295.13 L 908.48 298.59 L 908.77 302.14 L 909.04 305.79 L 909.31 309.55 L 909.56 313.42 L 909.80 317.42 L 910.02 321.54 L 910.24 325.82 L 910.44 330.25 L 910.63 334.85 L 910.80 339.65 L 910.97 344.66 L 911.12 349.91 L 911.26 355.44 L 911.39 361.28 L 911.51 367.48 L 911.61 374.12 L 911.70 381.28 L 911.78 389.09 L 911.85 397.73 L 911.90 407.48 L 911.95 418.84 L 911.98 432.79 L 911.99 451.97 L 912.00 512.00 Z" fill="url(#rim)"/>
  </g>

  <!-- Inset inner panel (recessed, slightly darker) -->
  <path d="M 884.00 512.00 L 883.99 567.83 L 883.98 585.67 L 883.95 598.64 L 883.91 609.20 L 883.86 618.27 L 883.80 626.30 L 883.72 633.57 L 883.64 640.23 L 883.54 646.40 L 883.43 652.17 L 883.31 657.60 L 883.18 662.74 L 883.04 667.63 L 882.89 672.29 L 882.72 676.75 L 882.55 681.03 L 882.36 685.15 L 882.16 689.12 L 881.95 692.96 L 881.73 696.68 L 881.50 700.28 L 881.25 703.77 L 880.99 707.17 L 880.73 710.47 L 880.45 713.69 L 880.16 716.82 L 879.85 719.88 L 879.54 722.87 L 879.21 725.79 L 878.88 728.64 L 878.53 731.43 L 878.17 734.17 L 877.79 736.84 L 877.41 739.47 L 877.02 742.04 L 876.61 744.56 L 876.19 747.04 L 875.76 749.47 L 875.31 751.85 L 874.86 754.19 L 874.39 756.50 L 873.91 758.76 L 873.42 760.98 L 872.92 763.17 L 872.40 765.33 L 871.88 767.44 L 871.34 769.53 L 870.79 771.58 L 870.22 773.60 L 869.65 775.59 L 869.06 777.54 L 868.46 779.47 L 867.84 781.37 L 867.22 783.24 L 866.58 785.09 L 865.93 786.91 L 865.27 788.70 L 864.59 790.47 L 863.90 792.21 L 863.20 793.92 L 862.49 795.62 L 861.76 797.28 L 861.02 798.93 L 860.27 800.55 L 859.50 802.15 L 858.72 803.73 L 857.93 805.29 L 857.12 806.83 L 856.30 808.34 L 855.47 809.84 L 854.62 811.31 L 853.76 812.77 L 852.89 814.20 L 852.00 815.62 L 851.10 817.02 L 850.19 818.39 L 849.26 819.75 L 848.31 821.09 L 847.36 822.42 L 846.38 823.72 L 845.40 825.01 L 844.40 826.28 L 843.38 827.54 L 842.35 828.77 L 841.30 829.99 L 840.24 831.20 L 839.17 832.38 L 838.07 833.55 L 836.97 834.71 L 835.84 835.84 L 834.71 836.97 L 833.55 838.07 L 832.38 839.17 L 831.20 840.24 L 829.99 841.30 L 828.77 842.35 L 827.54 843.38 L 826.28 844.40 L 825.01 845.40 L 823.72 846.38 L 822.42 847.36 L 821.09 848.31 L 819.75 849.26 L 818.39 850.19 L 817.02 851.10 L 815.62 852.00 L 814.20 852.89 L 812.77 853.76 L 811.31 854.62 L 809.84 855.47 L 808.34 856.30 L 806.83 857.12 L 805.29 857.93 L 803.73 858.72 L 802.15 859.50 L 800.55 860.27 L 798.93 861.02 L 797.28 861.76 L 795.62 862.49 L 793.92 863.20 L 792.21 863.90 L 790.47 864.59 L 788.70 865.27 L 786.91 865.93 L 785.09 866.58 L 783.24 867.22 L 781.37 867.84 L 779.47 868.46 L 777.54 869.06 L 775.59 869.65 L 773.60 870.22 L 771.58 870.79 L 769.53 871.34 L 767.44 871.88 L 765.33 872.40 L 763.17 872.92 L 760.98 873.42 L 758.76 873.91 L 756.50 874.39 L 754.19 874.86 L 751.85 875.31 L 749.47 875.76 L 747.04 876.19 L 744.56 876.61 L 742.04 877.02 L 739.47 877.41 L 736.84 877.79 L 734.17 878.17 L 731.43 878.53 L 728.64 878.88 L 725.79 879.21 L 722.87 879.54 L 719.88 879.85 L 716.82 880.16 L 713.69 880.45 L 710.47 880.73 L 707.17 880.99 L 703.77 881.25 L 700.28 881.50 L 696.68 881.73 L 692.96 881.95 L 689.12 882.16 L 685.15 882.36 L 681.03 882.55 L 676.75 882.72 L 672.29 882.89 L 667.63 883.04 L 662.74 883.18 L 657.60 883.31 L 652.17 883.43 L 646.40 883.54 L 640.23 883.64 L 633.57 883.72 L 626.30 883.80 L 618.27 883.86 L 609.20 883.91 L 598.64 883.95 L 585.67 883.98 L 567.83 883.99 L 512.00 884.00 L 456.17 883.99 L 438.33 883.98 L 425.36 883.95 L 414.80 883.91 L 405.73 883.86 L 397.70 883.80 L 390.43 883.72 L 383.77 883.64 L 377.60 883.54 L 371.83 883.43 L 366.40 883.31 L 361.26 883.18 L 356.37 883.04 L 351.71 882.89 L 347.25 882.72 L 342.97 882.55 L 338.85 882.36 L 334.88 882.16 L 331.04 881.95 L 327.32 881.73 L 323.72 881.50 L 320.23 881.25 L 316.83 880.99 L 313.53 880.73 L 310.31 880.45 L 307.18 880.16 L 304.12 879.85 L 301.13 879.54 L 298.21 879.21 L 295.36 878.88 L 292.57 878.53 L 289.83 878.17 L 287.16 877.79 L 284.53 877.41 L 281.96 877.02 L 279.44 876.61 L 276.96 876.19 L 274.53 875.76 L 272.15 875.31 L 269.81 874.86 L 267.50 874.39 L 265.24 873.91 L 263.02 873.42 L 260.83 872.92 L 258.67 872.40 L 256.56 871.88 L 254.47 871.34 L 252.42 870.79 L 250.40 870.22 L 248.41 869.65 L 246.46 869.06 L 244.53 868.46 L 242.63 867.84 L 240.76 867.22 L 238.91 866.58 L 237.09 865.93 L 235.30 865.27 L 233.53 864.59 L 231.79 863.90 L 230.08 863.20 L 228.38 862.49 L 226.72 861.76 L 225.07 861.02 L 223.45 860.27 L 221.85 859.50 L 220.27 858.72 L 218.71 857.93 L 217.17 857.12 L 215.66 856.30 L 214.16 855.47 L 212.69 854.62 L 211.23 853.76 L 209.80 852.89 L 208.38 852.00 L 206.98 851.10 L 205.61 850.19 L 204.25 849.26 L 202.91 848.31 L 201.58 847.36 L 200.28 846.38 L 198.99 845.40 L 197.72 844.40 L 196.46 843.38 L 195.23 842.35 L 194.01 841.30 L 192.80 840.24 L 191.62 839.17 L 190.45 838.07 L 189.29 836.97 L 188.16 835.84 L 187.03 834.71 L 185.93 833.55 L 184.83 832.38 L 183.76 831.20 L 182.70 829.99 L 181.65 828.77 L 180.62 827.54 L 179.60 826.28 L 178.60 825.01 L 177.62 823.72 L 176.64 822.42 L 175.69 821.09 L 174.74 819.75 L 173.81 818.39 L 172.90 817.02 L 172.00 815.62 L 171.11 814.20 L 170.24 812.77 L 169.38 811.31 L 168.53 809.84 L 167.70 808.34 L 166.88 806.83 L 166.07 805.29 L 165.28 803.73 L 164.50 802.15 L 163.73 800.55 L 162.98 798.93 L 162.24 797.28 L 161.51 795.62 L 160.80 793.92 L 160.10 792.21 L 159.41 790.47 L 158.73 788.70 L 158.07 786.91 L 157.42 785.09 L 156.78 783.24 L 156.16 781.37 L 155.54 779.47 L 154.94 777.54 L 154.35 775.59 L 153.78 773.60 L 153.21 771.58 L 152.66 769.53 L 152.12 767.44 L 151.60 765.33 L 151.08 763.17 L 150.58 760.98 L 150.09 758.76 L 149.61 756.50 L 149.14 754.19 L 148.69 751.85 L 148.24 749.47 L 147.81 747.04 L 147.39 744.56 L 146.98 742.04 L 146.59 739.47 L 146.21 736.84 L 145.83 734.17 L 145.47 731.43 L 145.12 728.64 L 144.79 725.79 L 144.46 722.87 L 144.15 719.88 L 143.84 716.82 L 143.55 713.69 L 143.27 710.47 L 143.01 707.17 L 142.75 703.77 L 142.50 700.28 L 142.27 696.68 L 142.05 692.96 L 141.84 689.12 L 141.64 685.15 L 141.45 681.03 L 141.28 676.75 L 141.11 672.29 L 140.96 667.63 L 140.82 662.74 L 140.69 657.60 L 140.57 652.17 L 140.46 646.40 L 140.36 640.23 L 140.28 633.57 L 140.20 626.30 L 140.14 618.27 L 140.09 609.20 L 140.05 598.64 L 140.02 585.67 L 140.01 567.83 L 140.00 512.00 L 140.01 456.17 L 140.02 438.33 L 140.05 425.36 L 140.09 414.80 L 140.14 405.73 L 140.20 397.70 L 140.28 390.43 L 140.36 383.77 L 140.46 377.60 L 140.57 371.83 L 140.69 366.40 L 140.82 361.26 L 140.96 356.37 L 141.11 351.71 L 141.28 347.25 L 141.45 342.97 L 141.64 338.85 L 141.84 334.88 L 142.05 331.04 L 142.27 327.32 L 142.50 323.72 L 142.75 320.23 L 143.01 316.83 L 143.27 313.53 L 143.55 310.31 L 143.84 307.18 L 144.15 304.12 L 144.46 301.13 L 144.79 298.21 L 145.12 295.36 L 145.47 292.57 L 145.83 289.83 L 146.21 287.16 L 146.59 284.53 L 146.98 281.96 L 147.39 279.44 L 147.81 276.96 L 148.24 274.53 L 148.69 272.15 L 149.14 269.81 L 149.61 267.50 L 150.09 265.24 L 150.58 263.02 L 151.08 260.83 L 151.60 258.67 L 152.12 256.56 L 152.66 254.47 L 153.21 252.42 L 153.78 250.40 L 154.35 248.41 L 154.94 246.46 L 155.54 244.53 L 156.16 242.63 L 156.78 240.76 L 157.42 238.91 L 158.07 237.09 L 158.73 235.30 L 159.41 233.53 L 160.10 231.79 L 160.80 230.08 L 161.51 228.38 L 162.24 226.72 L 162.98 225.07 L 163.73 223.45 L 164.50 221.85 L 165.28 220.27 L 166.07 218.71 L 166.88 217.17 L 167.70 215.66 L 168.53 214.16 L 169.38 212.69 L 170.24 211.23 L 171.11 209.80 L 172.00 208.38 L 172.90 206.98 L 173.81 205.61 L 174.74 204.25 L 175.69 202.91 L 176.64 201.58 L 177.62 200.28 L 178.60 198.99 L 179.60 197.72 L 180.62 196.46 L 181.65 195.23 L 182.70 194.01 L 183.76 192.80 L 184.83 191.62 L 185.93 190.45 L 187.03 189.29 L 188.16 188.16 L 189.29 187.03 L 190.45 185.93 L 191.62 184.83 L 192.80 183.76 L 194.01 182.70 L 195.23 181.65 L 196.46 180.62 L 197.72 179.60 L 198.99 178.60 L 200.28 177.62 L 201.58 176.64 L 202.91 175.69 L 204.25 174.74 L 205.61 173.81 L 206.98 172.90 L 208.38 172.00 L 209.80 171.11 L 211.23 170.24 L 212.69 169.38 L 214.16 168.53 L 215.66 167.70 L 217.17 166.88 L 218.71 166.07 L 220.27 165.28 L 221.85 164.50 L 223.45 163.73 L 225.07 162.98 L 226.72 162.24 L 228.38 161.51 L 230.08 160.80 L 231.79 160.10 L 233.53 159.41 L 235.30 158.73 L 237.09 158.07 L 238.91 157.42 L 240.76 156.78 L 242.63 156.16 L 244.53 155.54 L 246.46 154.94 L 248.41 154.35 L 250.40 153.78 L 252.42 153.21 L 254.47 152.66 L 256.56 152.12 L 258.67 151.60 L 260.83 151.08 L 263.02 150.58 L 265.24 150.09 L 267.50 149.61 L 269.81 149.14 L 272.15 148.69 L 274.53 148.24 L 276.96 147.81 L 279.44 147.39 L 281.96 146.98 L 284.53 146.59 L 287.16 146.21 L 289.83 145.83 L 292.57 145.47 L 295.36 145.12 L 298.21 144.79 L 301.13 144.46 L 304.12 144.15 L 307.18 143.84 L 310.31 143.55 L 313.53 143.27 L 316.83 143.01 L 320.23 142.75 L 323.72 142.50 L 327.32 142.27 L 331.04 142.05 L 334.88 141.84 L 338.85 141.64 L 342.97 141.45 L 347.25 141.28 L 351.71 141.11 L 356.37 140.96 L 361.26 140.82 L 366.40 140.69 L 371.83 140.57 L 377.60 140.46 L 383.77 140.36 L 390.43 140.28 L 397.70 140.20 L 405.73 140.14 L 414.80 140.09 L 425.36 140.05 L 438.33 140.02 L 456.17 140.01 L 512.00 140.00 L 567.83 140.01 L 585.67 140.02 L 598.64 140.05 L 609.20 140.09 L 618.27 140.14 L 626.30 140.20 L 633.57 140.28 L 640.23 140.36 L 646.40 140.46 L 652.17 140.57 L 657.60 140.69 L 662.74 140.82 L 667.63 140.96 L 672.29 141.11 L 676.75 141.28 L 681.03 141.45 L 685.15 141.64 L 689.12 141.84 L 692.96 142.05 L 696.68 142.27 L 700.28 142.50 L 703.77 142.75 L 707.17 143.01 L 710.47 143.27 L 713.69 143.55 L 716.82 143.84 L 719.88 144.15 L 722.87 144.46 L 725.79 144.79 L 728.64 145.12 L 731.43 145.47 L 734.17 145.83 L 736.84 146.21 L 739.47 146.59 L 742.04 146.98 L 744.56 147.39 L 747.04 147.81 L 749.47 148.24 L 751.85 148.69 L 754.19 149.14 L 756.50 149.61 L 758.76 150.09 L 760.98 150.58 L 763.17 151.08 L 765.33 151.60 L 767.44 152.12 L 769.53 152.66 L 771.58 153.21 L 773.60 153.78 L 775.59 154.35 L 777.54 154.94 L 779.47 155.54 L 781.37 156.16 L 783.24 156.78 L 785.09 157.42 L 786.91 158.07 L 788.70 158.73 L 790.47 159.41 L 792.21 160.10 L 793.92 160.80 L 795.62 161.51 L 797.28 162.24 L 798.93 162.98 L 800.55 163.73 L 802.15 164.50 L 803.73 165.28 L 805.29 166.07 L 806.83 166.88 L 808.34 167.70 L 809.84 168.53 L 811.31 169.38 L 812.77 170.24 L 814.20 171.11 L 815.62 172.00 L 817.02 172.90 L 818.39 173.81 L 819.75 174.74 L 821.09 175.69 L 822.42 176.64 L 823.72 177.62 L 825.01 178.60 L 826.28 179.60 L 827.54 180.62 L 828.77 181.65 L 829.99 182.70 L 831.20 183.76 L 832.38 184.83 L 833.55 185.93 L 834.71 187.03 L 835.84 188.16 L 836.97 189.29 L 838.07 190.45 L 839.17 191.62 L 840.24 192.80 L 841.30 194.01 L 842.35 195.23 L 843.38 196.46 L 844.40 197.72 L 845.40 198.99 L 846.38 200.28 L 847.36 201.58 L 848.31 202.91 L 849.26 204.25 L 850.19 205.61 L 851.10 206.98 L 852.00 208.38 L 852.89 209.80 L 853.76 211.23 L 854.62 212.69 L 855.47 214.16 L 856.30 215.66 L 857.12 217.17 L 857.93 218.71 L 858.72 220.27 L 859.50 221.85 L 860.27 223.45 L 861.02 225.07 L 861.76 226.72 L 862.49 228.38 L 863.20 230.08 L 863.90 231.79 L 864.59 233.53 L 865.27 235.30 L 865.93 237.09 L 866.58 238.91 L 867.22 240.76 L 867.84 242.63 L 868.46 244.53 L 869.06 246.46 L 869.65 248.41 L 870.22 250.40 L 870.79 252.42 L 871.34 254.47 L 871.88 256.56 L 872.40 258.67 L 872.92 260.83 L 873.42 263.02 L 873.91 265.24 L 874.39 267.50 L 874.86 269.81 L 875.31 272.15 L 875.76 274.53 L 876.19 276.96 L 876.61 279.44 L 877.02 281.96 L 877.41 284.53 L 877.79 287.16 L 878.17 289.83 L 878.53 292.57 L 878.88 295.36 L 879.21 298.21 L 879.54 301.13 L 879.85 304.12 L 880.16 307.18 L 880.45 310.31 L 880.73 313.53 L 880.99 316.83 L 881.25 320.23 L 881.50 323.72 L 881.73 327.32 L 881.95 331.04 L 882.16 334.88 L 882.36 338.85 L 882.55 342.97 L 882.72 347.25 L 882.89 351.71 L 883.04 356.37 L 883.18 361.26 L 883.31 366.40 L 883.43 371.83 L 883.54 377.60 L 883.64 383.77 L 883.72 390.43 L 883.80 397.70 L 883.86 405.73 L 883.91 414.80 L 883.95 425.36 L 883.98 438.33 L 883.99 456.17 L 884.00 512.00 Z" fill="url(#panel)"/>
  <g clip-path="url(#innerClip)">
    <path d="M 884.00 512.00 L 883.99 567.83 L 883.98 585.67 L 883.95 598.64 L 883.91 609.20 L 883.86 618.27 L 883.80 626.30 L 883.72 633.57 L 883.64 640.23 L 883.54 646.40 L 883.43 652.17 L 883.31 657.60 L 883.18 662.74 L 883.04 667.63 L 882.89 672.29 L 882.72 676.75 L 882.55 681.03 L 882.36 685.15 L 882.16 689.12 L 881.95 692.96 L 881.73 696.68 L 881.50 700.28 L 881.25 703.77 L 880.99 707.17 L 880.73 710.47 L 880.45 713.69 L 880.16 716.82 L 879.85 719.88 L 879.54 722.87 L 879.21 725.79 L 878.88 728.64 L 878.53 731.43 L 878.17 734.17 L 877.79 736.84 L 877.41 739.47 L 877.02 742.04 L 876.61 744.56 L 876.19 747.04 L 875.76 749.47 L 875.31 751.85 L 874.86 754.19 L 874.39 756.50 L 873.91 758.76 L 873.42 760.98 L 872.92 763.17 L 872.40 765.33 L 871.88 767.44 L 871.34 769.53 L 870.79 771.58 L 870.22 773.60 L 869.65 775.59 L 869.06 777.54 L 868.46 779.47 L 867.84 781.37 L 867.22 783.24 L 866.58 785.09 L 865.93 786.91 L 865.27 788.70 L 864.59 790.47 L 863.90 792.21 L 863.20 793.92 L 862.49 795.62 L 861.76 797.28 L 861.02 798.93 L 860.27 800.55 L 859.50 802.15 L 858.72 803.73 L 857.93 805.29 L 857.12 806.83 L 856.30 808.34 L 855.47 809.84 L 854.62 811.31 L 853.76 812.77 L 852.89 814.20 L 852.00 815.62 L 851.10 817.02 L 850.19 818.39 L 849.26 819.75 L 848.31 821.09 L 847.36 822.42 L 846.38 823.72 L 845.40 825.01 L 844.40 826.28 L 843.38 827.54 L 842.35 828.77 L 841.30 829.99 L 840.24 831.20 L 839.17 832.38 L 838.07 833.55 L 836.97 834.71 L 835.84 835.84 L 834.71 836.97 L 833.55 838.07 L 832.38 839.17 L 831.20 840.24 L 829.99 841.30 L 828.77 842.35 L 827.54 843.38 L 826.28 844.40 L 825.01 845.40 L 823.72 846.38 L 822.42 847.36 L 821.09 848.31 L 819.75 849.26 L 818.39 850.19 L 817.02 851.10 L 815.62 852.00 L 814.20 852.89 L 812.77 853.76 L 811.31 854.62 L 809.84 855.47 L 808.34 856.30 L 806.83 857.12 L 805.29 857.93 L 803.73 858.72 L 802.15 859.50 L 800.55 860.27 L 798.93 861.02 L 797.28 861.76 L 795.62 862.49 L 793.92 863.20 L 792.21 863.90 L 790.47 864.59 L 788.70 865.27 L 786.91 865.93 L 785.09 866.58 L 783.24 867.22 L 781.37 867.84 L 779.47 868.46 L 777.54 869.06 L 775.59 869.65 L 773.60 870.22 L 771.58 870.79 L 769.53 871.34 L 767.44 871.88 L 765.33 872.40 L 763.17 872.92 L 760.98 873.42 L 758.76 873.91 L 756.50 874.39 L 754.19 874.86 L 751.85 875.31 L 749.47 875.76 L 747.04 876.19 L 744.56 876.61 L 742.04 877.02 L 739.47 877.41 L 736.84 877.79 L 734.17 878.17 L 731.43 878.53 L 728.64 878.88 L 725.79 879.21 L 722.87 879.54 L 719.88 879.85 L 716.82 880.16 L 713.69 880.45 L 710.47 880.73 L 707.17 880.99 L 703.77 881.25 L 700.28 881.50 L 696.68 881.73 L 692.96 881.95 L 689.12 882.16 L 685.15 882.36 L 681.03 882.55 L 676.75 882.72 L 672.29 882.89 L 667.63 883.04 L 662.74 883.18 L 657.60 883.31 L 652.17 883.43 L 646.40 883.54 L 640.23 883.64 L 633.57 883.72 L 626.30 883.80 L 618.27 883.86 L 609.20 883.91 L 598.64 883.95 L 585.67 883.98 L 567.83 883.99 L 512.00 884.00 L 456.17 883.99 L 438.33 883.98 L 425.36 883.95 L 414.80 883.91 L 405.73 883.86 L 397.70 883.80 L 390.43 883.72 L 383.77 883.64 L 377.60 883.54 L 371.83 883.43 L 366.40 883.31 L 361.26 883.18 L 356.37 883.04 L 351.71 882.89 L 347.25 882.72 L 342.97 882.55 L 338.85 882.36 L 334.88 882.16 L 331.04 881.95 L 327.32 881.73 L 323.72 881.50 L 320.23 881.25 L 316.83 880.99 L 313.53 880.73 L 310.31 880.45 L 307.18 880.16 L 304.12 879.85 L 301.13 879.54 L 298.21 879.21 L 295.36 878.88 L 292.57 878.53 L 289.83 878.17 L 287.16 877.79 L 284.53 877.41 L 281.96 877.02 L 279.44 876.61 L 276.96 876.19 L 274.53 875.76 L 272.15 875.31 L 269.81 874.86 L 267.50 874.39 L 265.24 873.91 L 263.02 873.42 L 260.83 872.92 L 258.67 872.40 L 256.56 871.88 L 254.47 871.34 L 252.42 870.79 L 250.40 870.22 L 248.41 869.65 L 246.46 869.06 L 244.53 868.46 L 242.63 867.84 L 240.76 867.22 L 238.91 866.58 L 237.09 865.93 L 235.30 865.27 L 233.53 864.59 L 231.79 863.90 L 230.08 863.20 L 228.38 862.49 L 226.72 861.76 L 225.07 861.02 L 223.45 860.27 L 221.85 859.50 L 220.27 858.72 L 218.71 857.93 L 217.17 857.12 L 215.66 856.30 L 214.16 855.47 L 212.69 854.62 L 211.23 853.76 L 209.80 852.89 L 208.38 852.00 L 206.98 851.10 L 205.61 850.19 L 204.25 849.26 L 202.91 848.31 L 201.58 847.36 L 200.28 846.38 L 198.99 845.40 L 197.72 844.40 L 196.46 843.38 L 195.23 842.35 L 194.01 841.30 L 192.80 840.24 L 191.62 839.17 L 190.45 838.07 L 189.29 836.97 L 188.16 835.84 L 187.03 834.71 L 185.93 833.55 L 184.83 832.38 L 183.76 831.20 L 182.70 829.99 L 181.65 828.77 L 180.62 827.54 L 179.60 826.28 L 178.60 825.01 L 177.62 823.72 L 176.64 822.42 L 175.69 821.09 L 174.74 819.75 L 173.81 818.39 L 172.90 817.02 L 172.00 815.62 L 171.11 814.20 L 170.24 812.77 L 169.38 811.31 L 168.53 809.84 L 167.70 808.34 L 166.88 806.83 L 166.07 805.29 L 165.28 803.73 L 164.50 802.15 L 163.73 800.55 L 162.98 798.93 L 162.24 797.28 L 161.51 795.62 L 160.80 793.92 L 160.10 792.21 L 159.41 790.47 L 158.73 788.70 L 158.07 786.91 L 157.42 785.09 L 156.78 783.24 L 156.16 781.37 L 155.54 779.47 L 154.94 777.54 L 154.35 775.59 L 153.78 773.60 L 153.21 771.58 L 152.66 769.53 L 152.12 767.44 L 151.60 765.33 L 151.08 763.17 L 150.58 760.98 L 150.09 758.76 L 149.61 756.50 L 149.14 754.19 L 148.69 751.85 L 148.24 749.47 L 147.81 747.04 L 147.39 744.56 L 146.98 742.04 L 146.59 739.47 L 146.21 736.84 L 145.83 734.17 L 145.47 731.43 L 145.12 728.64 L 144.79 725.79 L 144.46 722.87 L 144.15 719.88 L 143.84 716.82 L 143.55 713.69 L 143.27 710.47 L 143.01 707.17 L 142.75 703.77 L 142.50 700.28 L 142.27 696.68 L 142.05 692.96 L 141.84 689.12 L 141.64 685.15 L 141.45 681.03 L 141.28 676.75 L 141.11 672.29 L 140.96 667.63 L 140.82 662.74 L 140.69 657.60 L 140.57 652.17 L 140.46 646.40 L 140.36 640.23 L 140.28 633.57 L 140.20 626.30 L 140.14 618.27 L 140.09 609.20 L 140.05 598.64 L 140.02 585.67 L 140.01 567.83 L 140.00 512.00 L 140.01 456.17 L 140.02 438.33 L 140.05 425.36 L 140.09 414.80 L 140.14 405.73 L 140.20 397.70 L 140.28 390.43 L 140.36 383.77 L 140.46 377.60 L 140.57 371.83 L 140.69 366.40 L 140.82 361.26 L 140.96 356.37 L 141.11 351.71 L 141.28 347.25 L 141.45 342.97 L 141.64 338.85 L 141.84 334.88 L 142.05 331.04 L 142.27 327.32 L 142.50 323.72 L 142.75 320.23 L 143.01 316.83 L 143.27 313.53 L 143.55 310.31 L 143.84 307.18 L 144.15 304.12 L 144.46 301.13 L 144.79 298.21 L 145.12 295.36 L 145.47 292.57 L 145.83 289.83 L 146.21 287.16 L 146.59 284.53 L 146.98 281.96 L 147.39 279.44 L 147.81 276.96 L 148.24 274.53 L 148.69 272.15 L 149.14 269.81 L 149.61 267.50 L 150.09 265.24 L 150.58 263.02 L 151.08 260.83 L 151.60 258.67 L 152.12 256.56 L 152.66 254.47 L 153.21 252.42 L 153.78 250.40 L 154.35 248.41 L 154.94 246.46 L 155.54 244.53 L 156.16 242.63 L 156.78 240.76 L 157.42 238.91 L 158.07 237.09 L 158.73 235.30 L 159.41 233.53 L 160.10 231.79 L 160.80 230.08 L 161.51 228.38 L 162.24 226.72 L 162.98 225.07 L 163.73 223.45 L 164.50 221.85 L 165.28 220.27 L 166.07 218.71 L 166.88 217.17 L 167.70 215.66 L 168.53 214.16 L 169.38 212.69 L 170.24 211.23 L 171.11 209.80 L 172.00 208.38 L 172.90 206.98 L 173.81 205.61 L 174.74 204.25 L 175.69 202.91 L 176.64 201.58 L 177.62 200.28 L 178.60 198.99 L 179.60 197.72 L 180.62 196.46 L 181.65 195.23 L 182.70 194.01 L 183.76 192.80 L 184.83 191.62 L 185.93 190.45 L 187.03 189.29 L 188.16 188.16 L 189.29 187.03 L 190.45 185.93 L 191.62 184.83 L 192.80 183.76 L 194.01 182.70 L 195.23 181.65 L 196.46 180.62 L 197.72 179.60 L 198.99 178.60 L 200.28 177.62 L 201.58 176.64 L 202.91 175.69 L 204.25 174.74 L 205.61 173.81 L 206.98 172.90 L 208.38 172.00 L 209.80 171.11 L 211.23 170.24 L 212.69 169.38 L 214.16 168.53 L 215.66 167.70 L 217.17 166.88 L 218.71 166.07 L 220.27 165.28 L 221.85 164.50 L 223.45 163.73 L 225.07 162.98 L 226.72 162.24 L 228.38 161.51 L 230.08 160.80 L 231.79 160.10 L 233.53 159.41 L 235.30 158.73 L 237.09 158.07 L 238.91 157.42 L 240.76 156.78 L 242.63 156.16 L 244.53 155.54 L 246.46 154.94 L 248.41 154.35 L 250.40 153.78 L 252.42 153.21 L 254.47 152.66 L 256.56 152.12 L 258.67 151.60 L 260.83 151.08 L 263.02 150.58 L 265.24 150.09 L 267.50 149.61 L 269.81 149.14 L 272.15 148.69 L 274.53 148.24 L 276.96 147.81 L 279.44 147.39 L 281.96 146.98 L 284.53 146.59 L 287.16 146.21 L 289.83 145.83 L 292.57 145.47 L 295.36 145.12 L 298.21 144.79 L 301.13 144.46 L 304.12 144.15 L 307.18 143.84 L 310.31 143.55 L 313.53 143.27 L 316.83 143.01 L 320.23 142.75 L 323.72 142.50 L 327.32 142.27 L 331.04 142.05 L 334.88 141.84 L 338.85 141.64 L 342.97 141.45 L 347.25 141.28 L 351.71 141.11 L 356.37 140.96 L 361.26 140.82 L 366.40 140.69 L 371.83 140.57 L 377.60 140.46 L 383.77 140.36 L 390.43 140.28 L 397.70 140.20 L 405.73 140.14 L 414.80 140.09 L 425.36 140.05 L 438.33 140.02 L 456.17 140.01 L 512.00 140.00 L 567.83 140.01 L 585.67 140.02 L 598.64 140.05 L 609.20 140.09 L 618.27 140.14 L 626.30 140.20 L 633.57 140.28 L 640.23 140.36 L 646.40 140.46 L 652.17 140.57 L 657.60 140.69 L 662.74 140.82 L 667.63 140.96 L 672.29 141.11 L 676.75 141.28 L 681.03 141.45 L 685.15 141.64 L 689.12 141.84 L 692.96 142.05 L 696.68 142.27 L 700.28 142.50 L 703.77 142.75 L 707.17 143.01 L 710.47 143.27 L 713.69 143.55 L 716.82 143.84 L 719.88 144.15 L 722.87 144.46 L 725.79 144.79 L 728.64 145.12 L 731.43 145.47 L 734.17 145.83 L 736.84 146.21 L 739.47 146.59 L 742.04 146.98 L 744.56 147.39 L 747.04 147.81 L 749.47 148.24 L 751.85 148.69 L 754.19 149.14 L 756.50 149.61 L 758.76 150.09 L 760.98 150.58 L 763.17 151.08 L 765.33 151.60 L 767.44 152.12 L 769.53 152.66 L 771.58 153.21 L 773.60 153.78 L 775.59 154.35 L 777.54 154.94 L 779.47 155.54 L 781.37 156.16 L 783.24 156.78 L 785.09 157.42 L 786.91 158.07 L 788.70 158.73 L 790.47 159.41 L 792.21 160.10 L 793.92 160.80 L 795.62 161.51 L 797.28 162.24 L 798.93 162.98 L 800.55 163.73 L 802.15 164.50 L 803.73 165.28 L 805.29 166.07 L 806.83 166.88 L 808.34 167.70 L 809.84 168.53 L 811.31 169.38 L 812.77 170.24 L 814.20 171.11 L 815.62 172.00 L 817.02 172.90 L 818.39 173.81 L 819.75 174.74 L 821.09 175.69 L 822.42 176.64 L 823.72 177.62 L 825.01 178.60 L 826.28 179.60 L 827.54 180.62 L 828.77 181.65 L 829.99 182.70 L 831.20 183.76 L 832.38 184.83 L 833.55 185.93 L 834.71 187.03 L 835.84 188.16 L 836.97 189.29 L 838.07 190.45 L 839.17 191.62 L 840.24 192.80 L 841.30 194.01 L 842.35 195.23 L 843.38 196.46 L 844.40 197.72 L 845.40 198.99 L 846.38 200.28 L 847.36 201.58 L 848.31 202.91 L 849.26 204.25 L 850.19 205.61 L 851.10 206.98 L 852.00 208.38 L 852.89 209.80 L 853.76 211.23 L 854.62 212.69 L 855.47 214.16 L 856.30 215.66 L 857.12 217.17 L 857.93 218.71 L 858.72 220.27 L 859.50 221.85 L 860.27 223.45 L 861.02 225.07 L 861.76 226.72 L 862.49 228.38 L 863.20 230.08 L 863.90 231.79 L 864.59 233.53 L 865.27 235.30 L 865.93 237.09 L 866.58 238.91 L 867.22 240.76 L 867.84 242.63 L 868.46 244.53 L 869.06 246.46 L 869.65 248.41 L 870.22 250.40 L 870.79 252.42 L 871.34 254.47 L 871.88 256.56 L 872.40 258.67 L 872.92 260.83 L 873.42 263.02 L 873.91 265.24 L 874.39 267.50 L 874.86 269.81 L 875.31 272.15 L 875.76 274.53 L 876.19 276.96 L 876.61 279.44 L 877.02 281.96 L 877.41 284.53 L 877.79 287.16 L 878.17 289.83 L 878.53 292.57 L 878.88 295.36 L 879.21 298.21 L 879.54 301.13 L 879.85 304.12 L 880.16 307.18 L 880.45 310.31 L 880.73 313.53 L 880.99 316.83 L 881.25 320.23 L 881.50 323.72 L 881.73 327.32 L 881.95 331.04 L 882.16 334.88 L 882.36 338.85 L 882.55 342.97 L 882.72 347.25 L 882.89 351.71 L 883.04 356.37 L 883.18 361.26 L 883.31 366.40 L 883.43 371.83 L 883.54 377.60 L 883.64 383.77 L 883.72 390.43 L 883.80 397.70 L 883.86 405.73 L 883.91 414.80 L 883.95 425.36 L 883.98 438.33 L 883.99 456.17 L 884.00 512.00 Z" fill="none" stroke="#c7d4e8" stroke-width="3" stroke-opacity="0.9" transform="translate(0,-1)"/>
    <rect x="140" y="140" width="744" height="744" fill="url(#specular)"/>
  </g>
  <path d="M 884.00 512.00 L 883.99 567.83 L 883.98 585.67 L 883.95 598.64 L 883.91 609.20 L 883.86 618.27 L 883.80 626.30 L 883.72 633.57 L 883.64 640.23 L 883.54 646.40 L 883.43 652.17 L 883.31 657.60 L 883.18 662.74 L 883.04 667.63 L 882.89 672.29 L 882.72 676.75 L 882.55 681.03 L 882.36 685.15 L 882.16 689.12 L 881.95 692.96 L 881.73 696.68 L 881.50 700.28 L 881.25 703.77 L 880.99 707.17 L 880.73 710.47 L 880.45 713.69 L 880.16 716.82 L 879.85 719.88 L 879.54 722.87 L 879.21 725.79 L 878.88 728.64 L 878.53 731.43 L 878.17 734.17 L 877.79 736.84 L 877.41 739.47 L 877.02 742.04 L 876.61 744.56 L 876.19 747.04 L 875.76 749.47 L 875.31 751.85 L 874.86 754.19 L 874.39 756.50 L 873.91 758.76 L 873.42 760.98 L 872.92 763.17 L 872.40 765.33 L 871.88 767.44 L 871.34 769.53 L 870.79 771.58 L 870.22 773.60 L 869.65 775.59 L 869.06 777.54 L 868.46 779.47 L 867.84 781.37 L 867.22 783.24 L 866.58 785.09 L 865.93 786.91 L 865.27 788.70 L 864.59 790.47 L 863.90 792.21 L 863.20 793.92 L 862.49 795.62 L 861.76 797.28 L 861.02 798.93 L 860.27 800.55 L 859.50 802.15 L 858.72 803.73 L 857.93 805.29 L 857.12 806.83 L 856.30 808.34 L 855.47 809.84 L 854.62 811.31 L 853.76 812.77 L 852.89 814.20 L 852.00 815.62 L 851.10 817.02 L 850.19 818.39 L 849.26 819.75 L 848.31 821.09 L 847.36 822.42 L 846.38 823.72 L 845.40 825.01 L 844.40 826.28 L 843.38 827.54 L 842.35 828.77 L 841.30 829.99 L 840.24 831.20 L 839.17 832.38 L 838.07 833.55 L 836.97 834.71 L 835.84 835.84 L 834.71 836.97 L 833.55 838.07 L 832.38 839.17 L 831.20 840.24 L 829.99 841.30 L 828.77 842.35 L 827.54 843.38 L 826.28 844.40 L 825.01 845.40 L 823.72 846.38 L 822.42 847.36 L 821.09 848.31 L 819.75 849.26 L 818.39 850.19 L 817.02 851.10 L 815.62 852.00 L 814.20 852.89 L 812.77 853.76 L 811.31 854.62 L 809.84 855.47 L 808.34 856.30 L 806.83 857.12 L 805.29 857.93 L 803.73 858.72 L 802.15 859.50 L 800.55 860.27 L 798.93 861.02 L 797.28 861.76 L 795.62 862.49 L 793.92 863.20 L 792.21 863.90 L 790.47 864.59 L 788.70 865.27 L 786.91 865.93 L 785.09 866.58 L 783.24 867.22 L 781.37 867.84 L 779.47 868.46 L 777.54 869.06 L 775.59 869.65 L 773.60 870.22 L 771.58 870.79 L 769.53 871.34 L 767.44 871.88 L 765.33 872.40 L 763.17 872.92 L 760.98 873.42 L 758.76 873.91 L 756.50 874.39 L 754.19 874.86 L 751.85 875.31 L 749.47 875.76 L 747.04 876.19 L 744.56 876.61 L 742.04 877.02 L 739.47 877.41 L 736.84 877.79 L 734.17 878.17 L 731.43 878.53 L 728.64 878.88 L 725.79 879.21 L 722.87 879.54 L 719.88 879.85 L 716.82 880.16 L 713.69 880.45 L 710.47 880.73 L 707.17 880.99 L 703.77 881.25 L 700.28 881.50 L 696.68 881.73 L 692.96 881.95 L 689.12 882.16 L 685.15 882.36 L 681.03 882.55 L 676.75 882.72 L 672.29 882.89 L 667.63 883.04 L 662.74 883.18 L 657.60 883.31 L 652.17 883.43 L 646.40 883.54 L 640.23 883.64 L 633.57 883.72 L 626.30 883.80 L 618.27 883.86 L 609.20 883.91 L 598.64 883.95 L 585.67 883.98 L 567.83 883.99 L 512.00 884.00 L 456.17 883.99 L 438.33 883.98 L 425.36 883.95 L 414.80 883.91 L 405.73 883.86 L 397.70 883.80 L 390.43 883.72 L 383.77 883.64 L 377.60 883.54 L 371.83 883.43 L 366.40 883.31 L 361.26 883.18 L 356.37 883.04 L 351.71 882.89 L 347.25 882.72 L 342.97 882.55 L 338.85 882.36 L 334.88 882.16 L 331.04 881.95 L 327.32 881.73 L 323.72 881.50 L 320.23 881.25 L 316.83 880.99 L 313.53 880.73 L 310.31 880.45 L 307.18 880.16 L 304.12 879.85 L 301.13 879.54 L 298.21 879.21 L 295.36 878.88 L 292.57 878.53 L 289.83 878.17 L 287.16 877.79 L 284.53 877.41 L 281.96 877.02 L 279.44 876.61 L 276.96 876.19 L 274.53 875.76 L 272.15 875.31 L 269.81 874.86 L 267.50 874.39 L 265.24 873.91 L 263.02 873.42 L 260.83 872.92 L 258.67 872.40 L 256.56 871.88 L 254.47 871.34 L 252.42 870.79 L 250.40 870.22 L 248.41 869.65 L 246.46 869.06 L 244.53 868.46 L 242.63 867.84 L 240.76 867.22 L 238.91 866.58 L 237.09 865.93 L 235.30 865.27 L 233.53 864.59 L 231.79 863.90 L 230.08 863.20 L 228.38 862.49 L 226.72 861.76 L 225.07 861.02 L 223.45 860.27 L 221.85 859.50 L 220.27 858.72 L 218.71 857.93 L 217.17 857.12 L 215.66 856.30 L 214.16 855.47 L 212.69 854.62 L 211.23 853.76 L 209.80 852.89 L 208.38 852.00 L 206.98 851.10 L 205.61 850.19 L 204.25 849.26 L 202.91 848.31 L 201.58 847.36 L 200.28 846.38 L 198.99 845.40 L 197.72 844.40 L 196.46 843.38 L 195.23 842.35 L 194.01 841.30 L 192.80 840.24 L 191.62 839.17 L 190.45 838.07 L 189.29 836.97 L 188.16 835.84 L 187.03 834.71 L 185.93 833.55 L 184.83 832.38 L 183.76 831.20 L 182.70 829.99 L 181.65 828.77 L 180.62 827.54 L 179.60 826.28 L 178.60 825.01 L 177.62 823.72 L 176.64 822.42 L 175.69 821.09 L 174.74 819.75 L 173.81 818.39 L 172.90 817.02 L 172.00 815.62 L 171.11 814.20 L 170.24 812.77 L 169.38 811.31 L 168.53 809.84 L 167.70 808.34 L 166.88 806.83 L 166.07 805.29 L 165.28 803.73 L 164.50 802.15 L 163.73 800.55 L 162.98 798.93 L 162.24 797.28 L 161.51 795.62 L 160.80 793.92 L 160.10 792.21 L 159.41 790.47 L 158.73 788.70 L 158.07 786.91 L 157.42 785.09 L 156.78 783.24 L 156.16 781.37 L 155.54 779.47 L 154.94 777.54 L 154.35 775.59 L 153.78 773.60 L 153.21 771.58 L 152.66 769.53 L 152.12 767.44 L 151.60 765.33 L 151.08 763.17 L 150.58 760.98 L 150.09 758.76 L 149.61 756.50 L 149.14 754.19 L 148.69 751.85 L 148.24 749.47 L 147.81 747.04 L 147.39 744.56 L 146.98 742.04 L 146.59 739.47 L 146.21 736.84 L 145.83 734.17 L 145.47 731.43 L 145.12 728.64 L 144.79 725.79 L 144.46 722.87 L 144.15 719.88 L 143.84 716.82 L 143.55 713.69 L 143.27 710.47 L 143.01 707.17 L 142.75 703.77 L 142.50 700.28 L 142.27 696.68 L 142.05 692.96 L 141.84 689.12 L 141.64 685.15 L 141.45 681.03 L 141.28 676.75 L 141.11 672.29 L 140.96 667.63 L 140.82 662.74 L 140.69 657.60 L 140.57 652.17 L 140.46 646.40 L 140.36 640.23 L 140.28 633.57 L 140.20 626.30 L 140.14 618.27 L 140.09 609.20 L 140.05 598.64 L 140.02 585.67 L 140.01 567.83 L 140.00 512.00 L 140.01 456.17 L 140.02 438.33 L 140.05 425.36 L 140.09 414.80 L 140.14 405.73 L 140.20 397.70 L 140.28 390.43 L 140.36 383.77 L 140.46 377.60 L 140.57 371.83 L 140.69 366.40 L 140.82 361.26 L 140.96 356.37 L 141.11 351.71 L 141.28 347.25 L 141.45 342.97 L 141.64 338.85 L 141.84 334.88 L 142.05 331.04 L 142.27 327.32 L 142.50 323.72 L 142.75 320.23 L 143.01 316.83 L 143.27 313.53 L 143.55 310.31 L 143.84 307.18 L 144.15 304.12 L 144.46 301.13 L 144.79 298.21 L 145.12 295.36 L 145.47 292.57 L 145.83 289.83 L 146.21 287.16 L 146.59 284.53 L 146.98 281.96 L 147.39 279.44 L 147.81 276.96 L 148.24 274.53 L 148.69 272.15 L 149.14 269.81 L 149.61 267.50 L 150.09 265.24 L 150.58 263.02 L 151.08 260.83 L 151.60 258.67 L 152.12 256.56 L 152.66 254.47 L 153.21 252.42 L 153.78 250.40 L 154.35 248.41 L 154.94 246.46 L 155.54 244.53 L 156.16 242.63 L 156.78 240.76 L 157.42 238.91 L 158.07 237.09 L 158.73 235.30 L 159.41 233.53 L 160.10 231.79 L 160.80 230.08 L 161.51 228.38 L 162.24 226.72 L 162.98 225.07 L 163.73 223.45 L 164.50 221.85 L 165.28 220.27 L 166.07 218.71 L 166.88 217.17 L 167.70 215.66 L 168.53 214.16 L 169.38 212.69 L 170.24 211.23 L 171.11 209.80 L 172.00 208.38 L 172.90 206.98 L 173.81 205.61 L 174.74 204.25 L 175.69 202.91 L 176.64 201.58 L 177.62 200.28 L 178.60 198.99 L 179.60 197.72 L 180.62 196.46 L 181.65 195.23 L 182.70 194.01 L 183.76 192.80 L 184.83 191.62 L 185.93 190.45 L 187.03 189.29 L 188.16 188.16 L 189.29 187.03 L 190.45 185.93 L 191.62 184.83 L 192.80 183.76 L 194.01 182.70 L 195.23 181.65 L 196.46 180.62 L 197.72 179.60 L 198.99 178.60 L 200.28 177.62 L 201.58 176.64 L 202.91 175.69 L 204.25 174.74 L 205.61 173.81 L 206.98 172.90 L 208.38 172.00 L 209.80 171.11 L 211.23 170.24 L 212.69 169.38 L 214.16 168.53 L 215.66 167.70 L 217.17 166.88 L 218.71 166.07 L 220.27 165.28 L 221.85 164.50 L 223.45 163.73 L 225.07 162.98 L 226.72 162.24 L 228.38 161.51 L 230.08 160.80 L 231.79 160.10 L 233.53 159.41 L 235.30 158.73 L 237.09 158.07 L 238.91 157.42 L 240.76 156.78 L 242.63 156.16 L 244.53 155.54 L 246.46 154.94 L 248.41 154.35 L 250.40 153.78 L 252.42 153.21 L 254.47 152.66 L 256.56 152.12 L 258.67 151.60 L 260.83 151.08 L 263.02 150.58 L 265.24 150.09 L 267.50 149.61 L 269.81 149.14 L 272.15 148.69 L 274.53 148.24 L 276.96 147.81 L 279.44 147.39 L 281.96 146.98 L 284.53 146.59 L 287.16 146.21 L 289.83 145.83 L 292.57 145.47 L 295.36 145.12 L 298.21 144.79 L 301.13 144.46 L 304.12 144.15 L 307.18 143.84 L 310.31 143.55 L 313.53 143.27 L 316.83 143.01 L 320.23 142.75 L 323.72 142.50 L 327.32 142.27 L 331.04 142.05 L 334.88 141.84 L 338.85 141.64 L 342.97 141.45 L 347.25 141.28 L 351.71 141.11 L 356.37 140.96 L 361.26 140.82 L 366.40 140.69 L 371.83 140.57 L 377.60 140.46 L 383.77 140.36 L 390.43 140.28 L 397.70 140.20 L 405.73 140.14 L 414.80 140.09 L 425.36 140.05 L 438.33 140.02 L 456.17 140.01 L 512.00 140.00 L 567.83 140.01 L 585.67 140.02 L 598.64 140.05 L 609.20 140.09 L 618.27 140.14 L 626.30 140.20 L 633.57 140.28 L 640.23 140.36 L 646.40 140.46 L 652.17 140.57 L 657.60 140.69 L 662.74 140.82 L 667.63 140.96 L 672.29 141.11 L 676.75 141.28 L 681.03 141.45 L 685.15 141.64 L 689.12 141.84 L 692.96 142.05 L 696.68 142.27 L 700.28 142.50 L 703.77 142.75 L 707.17 143.01 L 710.47 143.27 L 713.69 143.55 L 716.82 143.84 L 719.88 144.15 L 722.87 144.46 L 725.79 144.79 L 728.64 145.12 L 731.43 145.47 L 734.17 145.83 L 736.84 146.21 L 739.47 146.59 L 742.04 146.98 L 744.56 147.39 L 747.04 147.81 L 749.47 148.24 L 751.85 148.69 L 754.19 149.14 L 756.50 149.61 L 758.76 150.09 L 760.98 150.58 L 763.17 151.08 L 765.33 151.60 L 767.44 152.12 L 769.53 152.66 L 771.58 153.21 L 773.60 153.78 L 775.59 154.35 L 777.54 154.94 L 779.47 155.54 L 781.37 156.16 L 783.24 156.78 L 785.09 157.42 L 786.91 158.07 L 788.70 158.73 L 790.47 159.41 L 792.21 160.10 L 793.92 160.80 L 795.62 161.51 L 797.28 162.24 L 798.93 162.98 L 800.55 163.73 L 802.15 164.50 L 803.73 165.28 L 805.29 166.07 L 806.83 166.88 L 808.34 167.70 L 809.84 168.53 L 811.31 169.38 L 812.77 170.24 L 814.20 171.11 L 815.62 172.00 L 817.02 172.90 L 818.39 173.81 L 819.75 174.74 L 821.09 175.69 L 822.42 176.64 L 823.72 177.62 L 825.01 178.60 L 826.28 179.60 L 827.54 180.62 L 828.77 181.65 L 829.99 182.70 L 831.20 183.76 L 832.38 184.83 L 833.55 185.93 L 834.71 187.03 L 835.84 188.16 L 836.97 189.29 L 838.07 190.45 L 839.17 191.62 L 840.24 192.80 L 841.30 194.01 L 842.35 195.23 L 843.38 196.46 L 844.40 197.72 L 845.40 198.99 L 846.38 200.28 L 847.36 201.58 L 848.31 202.91 L 849.26 204.25 L 850.19 205.61 L 851.10 206.98 L 852.00 208.38 L 852.89 209.80 L 853.76 211.23 L 854.62 212.69 L 855.47 214.16 L 856.30 215.66 L 857.12 217.17 L 857.93 218.71 L 858.72 220.27 L 859.50 221.85 L 860.27 223.45 L 861.02 225.07 L 861.76 226.72 L 862.49 228.38 L 863.20 230.08 L 863.90 231.79 L 864.59 233.53 L 865.27 235.30 L 865.93 237.09 L 866.58 238.91 L 867.22 240.76 L 867.84 242.63 L 868.46 244.53 L 869.06 246.46 L 869.65 248.41 L 870.22 250.40 L 870.79 252.42 L 871.34 254.47 L 871.88 256.56 L 872.40 258.67 L 872.92 260.83 L 873.42 263.02 L 873.91 265.24 L 874.39 267.50 L 874.86 269.81 L 875.31 272.15 L 875.76 274.53 L 876.19 276.96 L 876.61 279.44 L 877.02 281.96 L 877.41 284.53 L 877.79 287.16 L 878.17 289.83 L 878.53 292.57 L 878.88 295.36 L 879.21 298.21 L 879.54 301.13 L 879.85 304.12 L 880.16 307.18 L 880.45 310.31 L 880.73 313.53 L 880.99 316.83 L 881.25 320.23 L 881.50 323.72 L 881.73 327.32 L 881.95 331.04 L 882.16 334.88 L 882.36 338.85 L 882.55 342.97 L 882.72 347.25 L 882.89 351.71 L 883.04 356.37 L 883.18 361.26 L 883.31 366.40 L 883.43 371.83 L 883.54 377.60 L 883.64 383.77 L 883.72 390.43 L 883.80 397.70 L 883.86 405.73 L 883.91 414.80 L 883.95 425.36 L 883.98 438.33 L 883.99 456.17 L 884.00 512.00 Z" fill="none" stroke="#ffffff" stroke-width="2.5" stroke-opacity="0.6" transform="translate(0,2)" clip-path="url(#innerClip)"/>

  <!-- Lightning bolt: sized to match original (~50% of tile width) -->
  <g transform="translate(268.40 268.40) scale(20.3)"
     fill="#e3eefc" stroke="#0969da"
     stroke-width="1.9" stroke-linecap="round" stroke-linejoin="round">
    <polygon points="13 2 3 14 12 14 11 22 21 10 12 10 13 2"/>
  </g>
</svg>
